<svg xmlns="http://www.w3.org/2000/svg" xmlns:xlink="http://www.w3.org/1999/xlink" viewBox="0 0 566.93 566.93"><defs><style>.cls-1{isolation:isolate;}.cls-2{fill:#683c11;}.cls-3{fill:#db441e;}.cls-4,.cls-5{fill:none;}.cls-4{stroke:#db441e;stroke-width:2.4px;}.cls-10,.cls-12,.cls-14,.cls-15,.cls-4,.cls-5{stroke-miterlimit:10;}.cls-5{stroke:#ffce00;stroke-width:1.2px;}.cls-6{fill:url(#Orange_Yellow_2);}.cls-7{mix-blend-mode:overlay;}.cls-8{fill:#f9f0c4;}.cls-9{fill:url(#Orange_Yellow_2-2);}.cls-10{fill:#d1d3d4;stroke-width:2px;}.cls-10,.cls-12,.cls-14,.cls-15{stroke:#231f20;}.cls-11{fill:#d6d6d6;}.cls-12{fill:#e6e7e8;}.cls-13{fill:#f2f2f2;mix-blend-mode:multiply;}.cls-14,.cls-15{stroke-width:3px;}.cls-14{fill:url(#White_Black);}.cls-15{fill-rule:evenodd;fill:url(#White_Black-2);}.cls-16{fill:#fff;}</style><linearGradient id="Orange_Yellow_2" x1="456.99" y1="269.5" x2="327.98" y2="279.42" gradientUnits="userSpaceOnUse"><stop offset="0" stop-color="#ffef26"/><stop offset="0.02" stop-color="#ffea21"/><stop offset="0.1" stop-color="#fed70f"/><stop offset="0.19" stop-color="#fdcc04"/><stop offset="0.28" stop-color="#fdc800"/><stop offset="0.67" stop-color="#f18f34"/><stop offset="0.89" stop-color="#e95f32"/><stop offset="1" stop-color="#e3312d"/></linearGradient><linearGradient id="Orange_Yellow_2-2" x1="283.22" y1="21.51" x2="283.22" y2="544.23" gradientTransform="translate(-1.13 1.13)" xlink:href="#Orange_Yellow_2"/><linearGradient id="White_Black" x1="498.83" y1="654.78" x2="485.43" y2="406.95" gradientTransform="translate(715.8 -195.85) rotate(70.06)" gradientUnits="userSpaceOnUse"><stop offset="0" stop-color="#fff"/><stop offset="1" stop-color="#231f20"/></linearGradient><linearGradient id="White_Black-2" x1="426.58" y1="600.45" x2="413.18" y2="352.41" gradientTransform="matrix(0.74, 0.67, -0.67, 0.74, 395.43, -240.93)" xlink:href="#White_Black"/></defs><title>icon</title><g class="cls-1"><g id="Layer_1" data-name="Layer 1"><rect class="cls-2" x="23.34" y="16.63" width="523.17" height="535.87" rx="52.54" ry="52.54"/><rect class="cls-3" x="29.57" y="22.87" width="514.1" height="526.8" rx="48" ry="48"/><rect class="cls-2" x="26.17" y="19.46" width="516.36" height="529.07" rx="49.13" ry="49.13"/><rect class="cls-4" x="26.17" y="19.46" width="514.1" height="526.8" rx="48" ry="48"/><rect class="cls-5" x="26.17" y="19.46" width="514.1" height="526.8" rx="48" ry="48"/><rect class="cls-6" x="26.17" y="19.46" width="514.1" height="526.8" rx="48" ry="48"/><g class="cls-7"><rect class="cls-8" x="27.31" y="20.6" width="511.83" height="524.54" rx="46.87" ry="46.87"/></g><rect class="cls-9" x="27.08" y="22.64" width="510.01" height="522.72" rx="45.96" ry="45.96"/><path class="cls-10" d="M523.51,286.13c0,132.05-107.06,239.12-239.12,239.12S45.27,418.18,45.27,286.13,152.33,47,284.39,47,523.51,154.06,523.51,286.13Z"/><path class="cls-11" d="M453.74,286.13A169.35,169.35,0,1,1,284.39,116.77,169.35,169.35,0,0,1,453.74,286.13Z"/><path class="cls-12" d="M446.64,286.13A162.25,162.25,0,1,1,284.39,123.87,162.25,162.25,0,0,1,446.64,286.13Z"/><path class="cls-13" d="M330.23,130.45a162.29,162.29,0,0,0,0,311.34,162.29,162.29,0,0,0,0-311.34Z"/><g id="_Grupo_" data-name="&lt;Grupo&gt;"><g id="_Grupo_2" data-name="&lt;Grupo&gt;"><path class="cls-14" d="M443.36,454.49c3.8-1.62,7.13-3.1,9.42-4.23l74-36.3-76.29,28.3c-2.42.9-5.16.18-6.14-1.82s.18-4.77,2.66-5.84l75.25-32.74L443.05,427a3.46,3.46,0,0,1-4.4-1.77h0a3.44,3.44,0,0,1,2.16-4.2l76.44-32.61L439,412.58c-2.19.67-4.58.07-5.61-1.63-1.4-2.3,0-5.25,2.78-6.29l76.53-28.39L432.89,397c-2.47.64-6,1.69-9.89,2.94-12.82,4.06-21.88,14-24.28,24.94-1.35,6.12-6.56,11.31-13.2,13.5C345.17,451.76,259.45,480.3,221,494.75c-5.74,2.16-10.89,4.23-15.49,6.21-13.46,5.77-7,23.19,7,18.79,4.78-1.5,10-3.28,15.8-5.4,38.56-14.1,122.14-48.34,161.43-64.54,6.46-2.67,13.8-2.14,18.84,1.61C417.62,458.15,431,459.77,443.36,454.49Z"/></g></g><path id="_Trazado_" data-name="&lt;Trazado&gt;" class="cls-15" d="M498.76,264.72s12.15-5.18,16.37-4.64,9.43,2.76,2.39,10.84-90.78,99.53-95.87,104.55-19.43,18.19-27,25.14-12,10.43-34.22,37.78-48.91,63-62.57,71.61c0,0-12.15,8.64-20.11,1.55s-2.38-15.78,4-24.08c0,0,14.2-17.4,47.85-49.55s41.61-35.44,47.44-41.86,16-25.26,22.38-33.87,30.27-35.84,51.55-57.53S488.4,270,498.76,264.72Z"/><g id="g3"><path id="path5" d="M470.16,189.75c-.71-1.09-2.48-1.66-3.65-2.35l-3.36-2-14.5-8.51c-6.2-3.64-12.35-7.39-18.64-10.9-14.27-8-28.77-15.5-43.34-22.91s-29.44-14.85-45.45-18.35c-8.23-1.8-16.4-1.3-24.64.12-7.86,1.36-15,4.92-22.37,7.78-1.82.71-3.46,1.78-5.31,2.47a56.13,56.13,0,0,0-5.3,2.66c-.3.15-1.62,1-1.81.78l-1.13-1.45-4.7-6-8.54-10.92a9.67,9.67,0,0,0-3.62-2.54,26.84,26.84,0,0,0-2.62-1,11.12,11.12,0,0,0-2.84-.62c-4.15.21-7.84.43-11.76,2a72.2,72.2,0,0,0-10.68,5.27,53.59,53.59,0,0,0-9.3,7.38,57.49,57.49,0,0,0-8,8.82c-3.57,5.31-7.4,11.19-8.2,17.69A19.15,19.15,0,0,0,210,162a29.93,29.93,0,0,0,1.27,5.5c.42,1.33,1.67,2.46,2.54,3.48a11.54,11.54,0,0,0,3,2.94,12.22,12.22,0,0,1-2,1.39,7.28,7.28,0,0,0-1.66,1.62c-.38.63-1.52,1.22-2.08,1.73-.81.74-1.6,1.53-2.4,2.29-2.87,2.7-5.84,5.28-8.75,8l-8.83-10.7c-2.06-2.49-4.37-5.17-7.63-6.06-7.79-2.13-16,1-22.76,4.67a61.91,61.91,0,0,0-17.82,14.81,58.16,58.16,0,0,0-7.16,10.49c-1.69,3.26-3.53,7.2-3.81,10.91a43.78,43.78,0,0,0,0,6.7c.13,1.83,1.39,3.74,2.36,5.26a24.15,24.15,0,0,0,3.83,4.23c1.37,1.31,2.55,2.8,4,4.07s2.71,2.74,4.08,4.11c.46.46.68.43.26.92l-1.23,1.42a15.88,15.88,0,0,0-1.66,2.13,25.73,25.73,0,0,0-2.69,5.37,16.31,16.31,0,0,0-.31,5.81c.18,3.83,1.5,7.65,2.44,11.35l2,7.85c.41,1.6-.07,2.78-.45,4.42a77.75,77.75,0,0,0-1.27,25.1,92.76,92.76,0,0,0,5.72,23.91,63.69,63.69,0,0,0,4.58,9.72,44.76,44.76,0,0,0,3.18,5.44l4.3,5.39c4.67,5.86,9.9,11.33,14.87,16.93L193.45,383c10.79,12.19,21.64,24.36,32.27,36.68q1.71,2,3.44,3.93l2.26,2.54c.16.18.63.57.66.7.31,1.24,3.39,2.79,4.46,3.28a25.19,25.19,0,0,0,5.23,1.84c3.94.85,8.16.08,12.08-.54a42.07,42.07,0,0,0,10.67-3.18,114.24,114.24,0,0,0,39.27-29.79c2.58-3.07,5.08-6.12,7.46-9.34a78,78,0,0,0,6-10.42,42.77,42.77,0,0,0,4-10.55c.82-3.77,1.8-7.87,1.39-11.76a19.65,19.65,0,0,0-1.45-5.66c-.59-1.4-1.66-3.78-3-4.58s-2.63-3.13-3.91-4.35-2.49-3-3.75-4.45c-.61-.71-1.28-1.36-1.94-2s.56-1.81.89-2.5c.78-1.64,1.77-3.22,2.62-4.83,1.86-3.53,3.73-7,5.46-10.6s3-7.35,5-10.7a44.09,44.09,0,0,0,2.35-5.11,35.9,35.9,0,0,0,2.05-5,26.36,26.36,0,0,0,.59-11.43,28.34,28.34,0,0,0-1.6-5.78c-.35-.88-.68-1.76-1.06-2.63-.27-.62-1.57-2.57-1.41-3.21s4.6-3.35,4.69-3.27a38.52,38.52,0,0,0,4.34,4c1.8,1.23,3.54,2.42,5.45,3.47,1.56.86,3.56,2.14,5.34,2.37,2.17.29,4.31.52,6.48.68,1.93.14,4.18-.51,6.07-.85s3.89-1.17,5.83-1.66a53.12,53.12,0,0,0,5.43-1.7c1.83-.68,3.66-1.32,5.51-1.94.89-.3,3.63-1.65,4.35-1.24l12.27,7.14c1.55.9,3.14,1.75,4.71,2.63a10.31,10.31,0,0,0,2.67.55,13.21,13.21,0,0,0,2.76.53c4-.12,8.4,0,12.21-1.38,7.39-2.58,14.85-5.7,21.14-10.49,3.29-2.5,6.59-5,9.71-7.65,3.4-2.93,6.46-5.92,9.57-9.16a101.82,101.82,0,0,0,14-18.28c4.23-7.1,7.86-14.25,9.78-22.34a50.62,50.62,0,0,0,1.16-7.46,20.54,20.54,0,0,0-.22-6.44,24.06,24.06,0,0,0-2.2-6.27,19.68,19.68,0,0,0-4.38-5.05"/><path id="path7" class="cls-16" d="M240.23,171.45c-.65.52-5.41,4.68-5.71,4.4a15.12,15.12,0,0,0-5.15-3.39,46,46,0,0,1,5.57-10.53c1.22-1.61,2.27-3.13,3.63-4.64l4-4.42a66,66,0,0,1,8.55-7.53,61.2,61.2,0,0,1,10.23-6.64,45,45,0,0,1,5.33-2.2c1.48-.51,4.14-1.32,5.68-1,1.87.41,3.1-.16,4.34,1.63.42.61,1,1.27,1.34,1.84.75,1.11-.33,1.12-1.36,1.62-7.14,3.41-14.12,7.3-21,11.13-4.38,2.43-8.87,4.84-13.09,7.54a8.55,8.55,0,0,0-3.85,6,7.75,7.75,0,0,0,.6,3.44c.22.49.24,1,.45,1.54s.85.89.51,1.18"/><path id="path9" class="cls-16" d="M215.66,168.3c-.94-1.46-2.24-3.22-2.33-5a28.43,28.43,0,0,1,.42-6.52c.67-4.07,2.77-7.69,4.73-11.24,3.79-6.87,9.75-12.7,16-17.31a47.34,47.34,0,0,1,10.17-6,44.46,44.46,0,0,1,5.5-2.07,33.75,33.75,0,0,1,6.09-.82,11.89,11.89,0,0,1,5.4.75c1.23.56,3.15,1.63,3.82,2.88a38,38,0,0,0,3.65,4.74c1.18,1.54,2.38,3.07,3.58,4.6l.16.21c-.89-.48-3.54.2-4.78.4a28.19,28.19,0,0,0-5.67,1.93,46.39,46.39,0,0,0-10.07,5.5,120.44,120.44,0,0,0-17.57,16.31A57.21,57.21,0,0,0,226.56,169a11.32,11.32,0,0,0-.52,1.45c-.32.89-.33.69-1.22.62a11.31,11.31,0,0,0-3.35.36c-1.46.37-1.49,1-2.68-.17l-3.12-2.95"/><path id="path11" class="cls-16" d="M215.64,178.55c2.78-2,6.74-4.65,10.37-3.23a29.54,29.54,0,0,1,7.57,4.77l21,16.41L278.17,215l1.53,1.2a14.82,14.82,0,0,1,1.76,2c.64.75.58,1.72,1.09,2.53a6.63,6.63,0,0,1,.26,2.5,6.26,6.26,0,0,1-.48,2.84,18.12,18.12,0,0,1-3,3.93c-6,5.89-11.7,12-17.46,18.15-5.61,5.95-11.41,11.73-17.09,17.61-5.35,5.55-10.67,11.13-16,16.67q-4.59,4.74-9.12,9.52c-.2.21-3.19-2.5-3.48-2.75l-49.39-41.16-13.85-11.54q18-16.5,35.89-33.08c4.78-4.44,9.65-8.79,14.43-13.24l6.64-6.15,3-2.76c.58-.54,2.77-2.09,2.8-2.76"/><path id="path13" class="cls-16" d="M208.11,327c-1.35.36-3.42-1-4.57-1.68a54.07,54.07,0,0,1-4.73-3.54c-3.28-2.48-6.41-5.19-9.59-7.79-6.27-5.13-12.78-10-19.17-15a145.61,145.61,0,0,1-15.91-13.7c-5.18-5.37-6.25-14.35-8-21.31,1.3,1.08,2.37,2.63,3.83,3.5a42.33,42.33,0,0,1,4.4,3.58c2.89,2.33,5.77,4.7,8.72,7,6.94,5.29,13.76,10.72,20.6,16.14,5.5,4.37,11,8.72,16.49,13.13l2.51,2c.34.28,1.39.87,1.49,1.26l1.14,4.51,3.06,12.08-.26-.16"/><path id="path15" d="M206.78,309.7a23.88,23.88,0,0,1,5.86-9.84,14.84,14.84,0,0,1,4.77-3.41c1-.4,2.79-.6,3.38-1.22l12.15-12.59,45.73-47.38,4.54-4.71a12.37,12.37,0,0,0,1.39-1.87,9.52,9.52,0,0,0,1-2.11c.28-.79.12-1.63.48-2.41l2.31,9.11c.43,1.7,1.09,3.68.71,5.39a8.44,8.44,0,0,1-2.46,4.38c-5.49,5.89-11,11.72-16.52,17.63q-16.62,17.9-33.6,35.45c-4.71,4.87-9.63,9.5-14,14.64a87,87,0,0,0-6.38,8.42c-1.62,2.43-3.1,5.26-5.33,7.16l-4-16.65"/><path id="path17" class="cls-16" d="M166.5,205.84c2.21-1.82,4.39-3.69,6.65-5.44,2.58-2,5.33-3.66,8.08-5.43a37.58,37.58,0,0,1,8-3.39,11.09,11.09,0,0,1,6.77-.2c-6,5.45-12.06,10.74-18,16.18s-11.6,11.08-17.57,16.42c-3.36,3-6.6,6.11-9.84,9.24-.52-4.9,2.31-10.64,5.08-14.56a100,100,0,0,1,11.07-12.84c.08-.08-.16,0-.18,0"/><path id="path19" class="cls-16" d="M150.29,188.35a73,73,0,0,1,9.28-7.12,75,75,0,0,1,11-5.44,20.89,20.89,0,0,1,11.43-.72c3.89.85,5.58,4.36,8.15,7,1.69,1.75,3,3.9,4.66,5.67-1.37.3-3.09.14-4.59.4a28.07,28.07,0,0,0-5.63,1.78,77.77,77.77,0,0,0-10.54,5.65c-3.4,2-6.33,5-9.25,7.68a73.07,73.07,0,0,0-8,8.28,67.49,67.49,0,0,0-7,10.33,24.66,24.66,0,0,0-3,11.81l-9.36-9.45c-2.5-2.52-2.87-6.58-2.5-9.93.94-8.43,6.08-15.25,11.08-21.77a44.7,44.7,0,0,1,4.13-4.19"/><path id="path21" class="cls-16" d="M150.25,239c1-.08,2.95,2.22,3.67,2.82l9.43,7.82,27.19,22.53,25.62,21.23a22.63,22.63,0,0,0-6.8,5.25,30.21,30.21,0,0,0-4.9,8l-43.61-34.52c-4.55-3.6-9.55-7-13.33-11.37-2.25-2.61-4.07-6.1-4-9.62a15,15,0,0,1,5-10.23c.62-.58,1.16-1.25,1.73-1.89"/><path id="path23" class="cls-16" d="M319.28,359.49a40.77,40.77,0,0,1-2.57,12.21,53.06,53.06,0,0,1-4.86,10.19,115.39,115.39,0,0,1-14.54,19,124.49,124.49,0,0,1-19.05,16,74.08,74.08,0,0,1-10.14,5.86,62.08,62.08,0,0,1-11.32,4.6c-7.18,1.82-16.63,3.31-22.18-2.67-5.69-6.13-4.12-14.81-1.68-22.14,5.26-15.8,16.91-28.29,29.06-39.22a92.57,92.57,0,0,1,19.8-13.3c6.79-3.47,14.9-6.75,22.65-6.28a22.24,22.24,0,0,1,6.79,1.38,14,14,0,0,1,4.87,3.47c3,3,3,7,3.42,11l-.25-.15"/><path id="path25" d="M318.24,307.19a4.33,4.33,0,0,1-.63,2.23c-.6,1-1.07,2.12-1.57,3.19-1,2.17-2.28,4.23-3.29,6.41-2.15,4.59-4.64,9-6.82,13.54-5.45-5.41-11.08-12.91-19.55-13-4,0-7.92,0-11.75,1.1a69.63,69.63,0,0,0-11.37,4.09A110.63,110.63,0,0,0,253,330.45c-2.84,1.79-5.58,3.73-8.34,5.64,10-13,20-25.83,30.76-38.25a76.1,76.1,0,0,1,7.79-8.12,55.43,55.43,0,0,1,10.09-6.78c3.34-1.79,7.54-3.46,11.37-3.49,3.62,0,8.28,1.32,10.54,4.33a22.43,22.43,0,0,1,4.75,11,31.06,31.06,0,0,1-1.46,12.6l-.26-.16"/><path id="path27" class="cls-16" d="M243.58,163.19a36.84,36.84,0,0,1,7.62-4.51c3.34-1.6,6.58-3.74,9.78-5.6,6.46-3.75,13.3-7,19.91-10.46.37.8,1.08-.42,1.63-.68,1.06-.51,2.12-1,3.17-1.55,1.8-.91,3.63-1.77,5.43-2.69,3.34-1.69,6.84-3.28,10.31-4.67a83,83,0,0,1,24.15-6.16c15.7-1.31,31.06,5.46,45,11.94,15.34,7.15,30.31,15.12,45.29,23,13.93,7.34,27.36,15.55,40.81,23.55l.72.43a30.83,30.83,0,0,0-5.45.51c-2,.52-4.08,1-6.1,1.63a59.59,59.59,0,0,0-11.39,5,92.34,92.34,0,0,0-19.16,13.48c-12,11.15-22.51,24-29,39.22a46.7,46.7,0,0,0-4,21.7c0,2.31.9,4.29,1.46,6.47q-4.89-3.06-9.81-6.08c-3.62-2.21-7.52-4-10.05-7.48-2.29-3.14-2.57-7.43-2.49-11.14a36.79,36.79,0,0,1,1.84-10.94,95,95,0,0,1,11-22,89.72,89.72,0,0,1,7.14-9.49,83.24,83.24,0,0,1,7.93-8.5c1.46-1.26,2.78-2.65,4.24-3.91,1.24-1.07,3.22-2.39,4-3.57.67-1,.34-1.89-.75-2.54-.28-.17-.89.11-1.2.23l-3.81,1.47c-7.41,2.86-14.49,7.31-21.15,11.58-13.07,8.37-25.12,21.31-29.79,36.39-2.34,7.54-3.54,15.18-2,23,1.45,7.42,6.73,13.29,13.3,16.63-3.9.2-8,.09-11.54-1.75a44.58,44.58,0,0,1-9.42-6.84c-1-.88-2.11-2.57-3.47-2.23-.39.1-.81.6-1.17.86L323.11,270c-1,.74-3.19,1.76-3.24,3.2s1.44,3.43,2,4.86c1.15,2.8,2.63,6,2.79,9a23,23,0,0,1-1.25,9.63c-.65-7.84-4-15.47-11.32-19.11-6.71-3.33-16.28-.45-22.23,3.36a59.89,59.89,0,0,0-9.63,7c-3,2.92-5.8,6.07-8.59,9.23-5.19,5.86-10.1,12.07-15,18.21q-4.24,5.37-8.57,10.67c-2.33,2.86-4.28,6-6.49,9-1.17,1.57-2.37,3.11-3.45,4.75L236,343.21c-.27.41-1,1.15-.89,1.52s-.29.57-.2.92c.14.54.35.59.64.82s.4.45.77.46c.22,0,1.24-.27,1.2-.41-.16-.64,4.26-3.72,4.83-4.2,1.23-1,2.46-2.05,3.73-3a113.15,113.15,0,0,1,11.37-7.68c6.58-3.92,13.77-7.37,21.44-8.4,3-.41,6.53-1,9.53-.09,1.31.41,3.3.61,4.37,1.48,1.27,1,2.57,2,3.84,3s2.14,2.28,3.24,3.34,2.15,2.13,3.23,3.18c2.26,2.23,4.3,4.69,6.38,7.11a37.11,37.11,0,0,0-12.26,0,64.58,64.58,0,0,0-11.63,3.55,74.14,74.14,0,0,0-19.79,11.48,149.13,149.13,0,0,0-18.56,17.12,79.7,79.7,0,0,0-7.15,8.93c-2.21,3.35-4.78,6.78-6.48,10.42A73.89,73.89,0,0,0,229,404.28,38,38,0,0,0,227.62,417c-10.48-11.9-20.84-23.92-31.46-35.69-5.53-6.13-11-12.35-16.46-18.51s-11.41-12.17-16.44-18.69a102.9,102.9,0,0,1-7.43-11A62.71,62.71,0,0,1,151,322a84.36,84.36,0,0,1-4.67-22.83,82.42,82.42,0,0,1-.28-9.61c.17-3.27.59-6.44,1-9.68a24.34,24.34,0,0,0,6,9.73c2.89,2.62,5.61,5.35,8.74,7.71,6.25,4.73,12.3,9.74,18.43,14.64q5.26,4.2,10.57,8.34c2.94,2.29,6.14,4.45,8.91,6.94,2.53,2.29,6.57,4.58,10.13,3.68,3.78-1,5.95-4.33,8-7.33a104.75,104.75,0,0,1,15.6-18.68c5.69-5.29,11-11.15,16.3-16.85C261,276,272.46,264,283.86,252c2.53-2.66,5.47-5.22,7.36-8.39,2-3.43,1.32-6.86.38-10.55L289.81,226c-.4-1.56-.61-3.49-1.48-4.87a26.46,26.46,0,0,0-3.55-4.73c-.64-.63-1.4-1.14-2.07-1.74-.45-.41-.64-.84-1.06-1.12-2.78-1.81-5.86-4.61-8.8-6.79-3.14-2.32-6.15-4.79-9.23-7.18-6.67-5.2-13.3-10.46-20-15.63-2.32-1.8-4.62-3.59-6.86-5.48l5.4-4.32c.67-.54.56-.49,1.18,0l6.4,5.05,25.54,20.16,26,20.55c3.89,3.07,8.06,7.22,12.63,9.24,1.66.73,3.82,1.65,5.59,1.2a9.74,9.74,0,0,1,2.95,0,23.4,23.4,0,0,1,2.86.75,23.54,23.54,0,0,0-8.58,2.69,25.66,25.66,0,0,0-6.91,5c-4,4.41-7.9,9.29-8.08,15.5-.56-.8-.87-.85-1.16-2a18.28,18.28,0,0,1-.86-4.25c0-1.39.92-2.41.58-3.75s-2-.86-2.69-.3a15,15,0,0,0-1.81,2c-.57.7-1.35,1.2-1.89,1.87a33.48,33.48,0,0,1-4.14,4.17,97.78,97.78,0,0,0-8.49,8.49c-2.34,2.59-5.43,5.44-7.15,8.31a1.47,1.47,0,0,0,1.11,2.23c1.39.25,2.94-1.58,4.06-2.41a59.48,59.48,0,0,1,21.09-9.85c.77-.2,1.89-.63,2.11.23a5.08,5.08,0,0,0,1.06,1.59,9.14,9.14,0,0,0,3.85,2.67c3.61,1.29,7.8,0,11.26-1.25,3.29-1.23,6.46-4,8.87-6.47,2.82-2.91,5.33-6,6.61-9.92,1-3,2.14-7.65-.06-10.45-.43-.54-1.28-1.18-1.11-1.92a24,24,0,0,1,.83-3A26.25,26.25,0,0,1,336,225.3a77.47,77.47,0,0,1,6.3-9.23c1-1.3,2.18-2.54,3.31-3.76a17.78,17.78,0,0,0,1.76-1.72,4.27,4.27,0,0,0,.3-1.39c-.42-.48-.59-.8-1.13-1-.81-.33-.84-.07-1.55.22a38.16,38.16,0,0,0-5.76,3.36c-3.75,2.4-7.46,4.79-11.06,7.4-.47-.69-2.74,1-3.28,1.24a8.4,8.4,0,0,1-5.18.45,11.56,11.56,0,0,1-2.66-.84c-.4-.24-.62-.67-.93-.91L314.77,218l-19.42-15.09-49.06-38.12c-.6-.47-1.81-1.88-2.7-1.63"/><path id="path29" d="M242.57,166.06l40.68,31.63,31,24.13-.05-.2-.21.05c1.87,1.89,4.84,2.55,7.39,2.49-.67.58-1.31,1.2-1.94,1.8-.81.77-1.14,1.33-2.26.94a26.19,26.19,0,0,1-4.74-2.33c-3.12-1.85-5.91-4.65-8.79-6.89-6.53-5.08-12.92-10.35-19.48-15.39-6.4-4.92-12.63-10-19-15q-5.11-4-10.22-8c-3.14-2.44-6.61-4.73-9.56-7.39-.82-.74-2.19-1.42-2.45-2.45-.3-1.19-1.23-2.44-.73-3.74l.31.36"/><path id="path31" d="M338.15,216.21c-1.58,2.25-3.2,4.5-4.61,6.86-.63,1.05-1,2.25-1.61,3.28a36.72,36.72,0,0,0-1.59,3.83,10.38,10.38,0,0,0-3.34-2,18.78,18.78,0,0,0-4-1.17c4.94-3.78,10-7.26,15.14-10.82"/><path id="path33" d="M297.09,252.13c.53.33.45,1.23.67,1.79a6.3,6.3,0,0,0,1.14,1.89A59.65,59.65,0,0,0,285.17,261c2.09-1.8,3.75-4.11,5.84-5.91,1-.89,1.86-1.85,2.88-2.73.75-.65,2.44-1.9,2.79-2.78.15.57.79,2.23.42,2.51"/><path id="path35" d="M361.31,274.9c-.52.86-2.84.72-3.38.86-1.15.29-4.31-1.09-5.3-1.68a23.54,23.54,0,0,1-8.41-8.28A21.78,21.78,0,0,1,341.4,254a41.42,41.42,0,0,1,1.46-11.52,67.08,67.08,0,0,1,10.56-21.3c5-6.49,11.52-11.62,18.12-16.41,5-3.66,10.59-6.49,16.08-9.36a68.77,68.77,0,0,0-7.05,7.41,121.12,121.12,0,0,0-7.78,9.89c-4.65,6.7-8.84,13.52-11.61,21.24-2.46,6.87-4.24,15.13-2.41,22.33a17.8,17.8,0,0,0,5.47,9,11.45,11.45,0,0,0,1.92,1.18c.71.46,1.28,1.11,2,1.54l5,3c-1.72,1-4,1.21-5.82,2-.79.35-5.81,2.23-6.07,1.86"/><path id="path37" class="cls-16" d="M473.53,203.07a23.28,23.28,0,0,1,.1,5.85c-.33,2.17-.76,4.27-1.23,6.41a43.91,43.91,0,0,1-3.78,10.61c-3.78,7.17-7.67,14.25-12.91,20.49-2.77,3.3-5.59,6.46-8.55,9.58a120.06,120.06,0,0,1-8.9,8.09c-6.15,5.31-13.13,9.3-20.3,13-3.6,1.87-8.06,2.7-12,3.69-1.84.47-4,.18-5.93.22a12.71,12.71,0,0,1-5.16-.9,21.89,21.89,0,0,1-5.23-3.43,11,11,0,0,1-3.11-4.59,23.83,23.83,0,0,1-1.07-5.12,41.49,41.49,0,0,1,.06-6.19,56.15,56.15,0,0,1,7.7-22,122.29,122.29,0,0,1,14.44-20.15c10.65-11.68,23.93-23.25,39.41-27.74,5.55-1.61,12.79-3.47,18.16-.26,2.45,1.46,4.15,2.27,6,4.76.75,1,3.49,6.83,2.31,7.65"/><path id="path39" d="M189,234.38c6.18,5.58,13,10.56,19.41,15.87l18.17,15c.75.62,1.52,1.23,2.24,1.89s1.11.53,1.74.9c.88.52,2.85-2.26,3.26-2.71,2.86-3.07,5.75-6.1,8.66-9.13,5.64-5.89,11.26-11.78,16.82-17.75,5.34-5.73,10.72-11.64,16.52-16.88a1.66,1.66,0,0,0,.58-2c-.26-1-2.54-2.31-3.52-3.12-3.27-2.7-6.65-5.27-10-7.89q-9.53-7.51-18.95-15.16c-3-2.43-6.05-4.71-9.11-7a18.31,18.31,0,0,0-5-2.72,16.06,16.06,0,0,0-6.12-.94c-8.48,0-13.67,6.13-19.47,11.35-6.11,5.5-11.73,11.57-17.88,17a13.75,13.75,0,0,0-4.53,10.39c0,2.7,1,4.72,2,7.18.19.47.74.78,1,1.22a6.26,6.26,0,0,0,1.18,1.66c1,.93,2,1.87,3,2.87"/><path id="path41" class="cls-16" d="M275.56,221.39c0,.16.12.26-.15.26a1.37,1.37,0,0,0,.41-.1l-.26-.15"/><path id="path43" d="M231.89,259.93a20.8,20.8,0,0,1,1.25-5.42c.8-1.91,2-2.89,3.31-4.47,2.58-3.21,6-6,8.87-8.92,2.65-2.67,5.28-5.4,7.9-8.11,2.84-2.94,5.56-6.14,8.66-8.81,2.84-2.45,5.94-4.21,9.83-3.36-5,5.86-10.72,11.08-15.87,16.78-5.43,6-11.06,11.85-16.65,17.71l-7,7.37c0-.54.16-2.8-.27-2.77"/><path id="path45" class="cls-16" d="M229.29,263.43,191,231.91a15.88,15.88,0,0,1-6-10.7c.21,1.26,2.14,2.48,3.07,3.33,1.3,1.18,2.77,2.19,4.11,3.33,3,2.53,6,5,9,7.58,6.26,5.37,12.66,10.58,19,15.91l2.49,2.11c.4.34,1.22,1.53,1.78,1.39,1-.25,2.22-.1,2.1-1.62-.14-1.79-3.34-3.54-4.57-4.57l-25.79-21.58-6.92-5.79a7,7,0,0,1-2.3-3.78,3.56,3.56,0,0,1-.12-2.2c.18-.4.84-.84,1.1-1.26a11.81,11.81,0,0,1,2.08-2l5.17-4.94L207.79,195c4.82-4.6,10.61-10.29,18-9a14,14,0,0,1,5.44,1.71c1.55,1.07,3.06,2.2,4.51,3.4,3.32,2.74,6.73,5.38,10.11,8.06q11.52,9.16,23.07,18.29c-3.73-.19-7.11,2.49-9.68,4.85-3,2.73-5.59,5.86-8.48,8.69s-5.41,5.6-8.16,8.37-5.66,6.18-8.74,8.83c-4.5,3.89-5.18,9.88-4.49,15.43,0,.17,0-.16,0-.15"/><path id="path47" d="M261,372.29c-2.79,2.77-5.51,5.56-8.08,8.54a114.31,114.31,0,0,0-7.69,10.43,52.44,52.44,0,0,0-5.17,10.63c-1.29,3.31-2.12,7.63-1.23,11.14a10,10,0,0,0,7.37,7.22c3.85.83,8.18,0,11.91-1.13,7.68-2.41,14.58-7,21.06-11.69a93.31,93.31,0,0,0,17.26-16.52,70.21,70.21,0,0,0,12.3-21c2.38-6.71,1.43-16.66-7.43-17.47a23.54,23.54,0,0,0-6.13,0A45.89,45.89,0,0,0,289,354c-3.79,1.13-7.46,3.49-10.92,5.36-6.28,3.38-11.74,8.19-17,12.88"/><path id="path49" class="cls-16" d="M306.73,363.32c-1,8.09-4.94,15-9.71,21.51a112.19,112.19,0,0,1-8.12,9.59,64.05,64.05,0,0,1-8.43,7.9c-3.48,2.57-6.86,5.17-10.51,7.5a77.36,77.36,0,0,1-10.72,5.55,25.1,25.1,0,0,1-11.3,1.93c-3.94-.29-6.17-3.61-6.15-7.22,0-7.7,4.52-15.28,9-21.33a105.75,105.75,0,0,1,17.35-18.36,110,110,0,0,1,9.55-7.05,72.26,72.26,0,0,1,11-5.63,26.34,26.34,0,0,1,11.57-2.16,6.7,6.7,0,0,1,6.55,7.28l0,.49"/><path id="path51" d="M412.78,222.39a122.69,122.69,0,0,0-14,20.16c-3.54,6.41-6.17,14.84-4.33,22.1a8.26,8.26,0,0,0,3,4.68,13,13,0,0,0,5.74,2.12,23.31,23.31,0,0,0,11.22-1.89,64.68,64.68,0,0,0,20.19-12.63c3.32-3,6.49-6.09,9.63-9.31,2.71-2.77,5-6,7.48-9a49.46,49.46,0,0,0,3-4.62c1-1.59,2.13-3.15,3-4.83a64.64,64.64,0,0,0,4.9-11.35c2-7,2.89-16.83-5.65-19.72-4-1.35-8.36-.06-12.27.93a23.63,23.63,0,0,0-5.08,2.17c-1.73.95-3.58,1.8-5.23,2.88-3.8,2.49-7.9,4.94-11.2,8.09-1.7,1.63-3.46,3.22-5.1,4.9l-3.2,3.28c-.58.6-1.34,1.77-2.14,2"/><path id="path53" class="cls-16" d="M460.78,207.82c.17,8.05-3.18,15.65-7.45,22.33-2.31,3.61-4.62,7.12-7.23,10.53-2.47,3.22-5.43,6.13-8.19,9.09-5.52,5.91-12.67,10.41-19.48,14.66a29.16,29.16,0,0,1-11,3.81,10.54,10.54,0,0,1-5.76-.37c-1.63-.74-3.55-2-4-3.86-1.9-7.5,1.73-16.11,5.52-22.48a108.59,108.59,0,0,1,14-18.86c5.35-5.73,11.43-11.52,18.28-15.45a55.55,55.55,0,0,1,11.52-5.38c3.34-1,8.54-2,11.44.61,1.31,1.18,2.83,3.51,2.45,5.37"/><path id="path55" d="M241.09,409.83c8-.31,15.39-3.74,22.06-8a92.84,92.84,0,0,0,18.71-15.41,116.29,116.29,0,0,0,11.84-15.26A40.4,40.4,0,0,0,300,353.91c-15.66,1.5-30.55,11-40.94,22.49-4.72,5.22-9.42,10.41-13.62,16.06a27.28,27.28,0,0,0-5.55,17.69l1.23-.31"/><path id="path57" d="M396.45,262.07c7.64-.94,15.59-4.91,21.53-9.83,6.45-5.36,12.84-10.74,18.07-17.33,8.07-10.15,16.49-22.26,16-35.78a70.82,70.82,0,0,0-22,9.71c-7.07,4.7-12.86,10.75-18.31,17.18a125.94,125.94,0,0,0-11.9,16.58c-1.73,2.9-3.78,6.17-4.4,9.52a27.57,27.57,0,0,0-.24,10.25l1.23-.31"/><path id="path59" d="M205.63,256.12c-1.13-1.35-3.62-1.48-5.18-1.09a6.12,6.12,0,0,0-4,3.3,6,6,0,0,0,0,5.27,11.56,11.56,0,0,0,3.16,3.17l6.48,5.39a31.59,31.59,0,0,0,3.85,3c3.15,1.88,8.16.51,9-3.26a6.55,6.55,0,0,0-.48-4.9,10.11,10.11,0,0,0-3-2.94l-6-4.94a33.86,33.86,0,0,0-3.81-3.05"/><path id="path61" class="cls-16" d="M217.72,269.41c.56.48.14,1.57,0,2.18-.18.8-.87,1.3-1.25,2a3.52,3.52,0,0,1-1.92,1,5.27,5.27,0,0,1-2.46.19c-1.33-.25-2.37-1.31-3.4-2.16l-6.6-5.36c-2.65-2.15-6-4.15-4.57-8.09,1.19-3.37,5.28-3.81,7.82-1.75l8.67,7c2,1.62,3.33,2.59,4,5.12l-.26-.15"/><path id="path63" d="M190.41,243.4,180,234.87a5.93,5.93,0,0,0-4-1.74c-1.51,0-4,.28-4.82,1.73s-1.94,2.92-1.7,4.9a5.88,5.88,0,0,0,2.4,4.06l10.65,8.86a6.39,6.39,0,0,0,8.5-.17c1-.89,2.23-3.24,1.86-4.72s-.82-3.67-2.43-4.4"/><path id="path65" class="cls-16" d="M191.5,247.7c.55,1.41-.75,3.39-1.75,4.26a5,5,0,0,1-4.38.78,10.73,10.73,0,0,1-3.57-2.36l-6.65-5.44a27.76,27.76,0,0,1-3.61-3.17c-1.22-1.41-.86-3.39-.31-5,.63-1.79,2.81-2.12,4.28-2.5s2.88.85,3.89,1.68l8.59,7a21.92,21.92,0,0,1,2.12,1.83,5.88,5.88,0,0,1,1.39,2.92"/><path id="path67" d="M331.87,206.9l-5.52,3.94c-.71.5-1.64,1.78-2.44,1.18l-8.28-6.17-27.38-20.4-5.9-4.39,5.66-3.88c.29-.2,1.45-.72,1.61-1s-.12-1.06-.36-1c-1.69.43-3.31,1.92-4.76,2.85l-3.1,2c-.33.21-.65.81-.73.83-.4.1.66.89.92,1.09l3.34,2.51,12.27,9.2,24.72,18.54,1.81,1.36c.84.63,2.94-1.35,3.53-1.75s5.49-3.14,5.36-3.66c-.06-.23.33-.4.2-.92-.07-.27-.75-.14-.95-.3"/><path id="path69" d="M346.55,196.85l-5.78,3.76c-.84.54-1.51,1.52-2.36.9l-8.63-6.29-27.47-20-5.18-3.77L303,168c.25-.14,1-.75,1.07-.76.44-.11-.43-.9-.77-.89-.51,0-1.23.66-1.63.91l-3.9,2.33c-1,.59-3.11,1.37-2.19,2.42a9.47,9.47,0,0,0,1.61,1.17l4.29,3.11L314.82,186l22.27,16.15,1.49,1.08c.66.48,2.32-1,3-1.46l5.79-3.76c.88-.57.05-1.35-.8-1.16"/><path id="path71" d="M361.44,186.76l-5.85,3.45c-.87.51-1.54,1.41-2.4.8l-8.8-6.16-27.73-19.4L311.78,162l6.07-3c.9-.44.71-1.8-.34-1.26l-6.59,3.39c-.8.41-1.59.87-.72,1.49l20.21,14.07L352.29,192c.16.11,1,.93,1.12,1,1,.21,3.13-1.67,3.9-2.13,1.45-.87,3.3-2.52,5-2.94.45-.12.19-1.54-.83-1.1"/><path id="path73" d="M376.28,176.45c0,.89-4.42,2.71-5.26,3.18s-2.06,1.71-2.87,1.17L359.54,175l-28.14-19-5-3.36,6-2.59c1-.41.46-1.44-.32-1.24-2.06.52-4.12,1.79-6.06,2.64a3.58,3.58,0,0,0-1.26.74s-.63,1-.1.9,1.35.82,1.65,1l4.35,2.94,13.69,9.26,22.26,15.06a6.83,6.83,0,0,0,1.31.89c.89.31,2.48-1,3.44-1.52l5.61-3.17c.92-.52-.2-1-.5-1.19l-.2.05c.08.3,0,.15,0,0"/><path id="path75" d="M391.38,168l-6.17,3.09c-1,.5-1.43,1.1-2.34.51l-9.33-6.06-28.07-18.23-4.06-2.63c1.8-.59,4.23-.93,5.84-1.92.95-.58.25-1.67-.85-1.25L339.94,144c-.71.27-.65.83-.07,1.2l22,14.27,20.28,13.14c.13.09,1.05.77,1.06.77a24.4,24.4,0,0,0,4.05-1.76l3.16-1.46a6.36,6.36,0,0,0,1.7-.78c.74-.78,0-1.25-.77-1.33"/><path id="path77" d="M407.15,161.44l-6.33,2.45c-1,.4-1.5.9-2.39.35l-9.36-5.84-28.67-17.88c-.72-.45-4.49-3.68-5.48-2.7s3.51,3,4.09,3.41l28.22,17.6L398.68,166c.41.25.92,0,1.51-.27l5.41-2.06c.77-.29,2.12-.51,2.55-1.24s-.59-.9-1-.95"/><path id="path79" d="M336.79,237.5c-2.19-2.69-6.71-3.1-9.87-2.3a28.43,28.43,0,0,0-10.61,5.16c-5.88,4.63-11.62,12.33-10.44,20.2.59,4,4.54,6.93,7.12,9.71a9.69,9.69,0,0,0,9.5,2.47,25,25,0,0,0,5.45-1.67,28.91,28.91,0,0,0,4.85-3,31.84,31.84,0,0,0,8.16-8.63c2.11-3.55,4.23-7.75,3.16-12a10.53,10.53,0,0,0-2.47-4.87c-1.47-1.57-3-4-4.85-5.09"/><path id="path81" class="cls-16" d="M335.27,243.55c-7.67.39-14.25,5.87-18.4,12-1.86,2.74-4,7.2-2.64,10.52,1.67,4.05,5.24,4.18,9.06,3.21,6.37-1.61,11.39-6.22,15-11.55,1.46-2.15,3.1-5.88,2.82-8.53-.17-1.57-.4-3.44-1.91-4.34-1.12-.66-2.48-1.53-3.92-1.3"/><path id="path83" class="cls-16" d="M333.1,238.43c-.79-1.26-2.75-1.54-4.11-1.58a16.39,16.39,0,0,0-5.44.94c-3.51,1.13-6.3,3.54-9,6a23.41,23.41,0,0,0-6.4,9.47,17.67,17.67,0,0,0-.73,5.32c0,1.63,1.93,3.48,2.88,4.59,1-6.36,4-11,8.52-15.46a27,27,0,0,1,7.11-5.07,24.31,24.31,0,0,1,8.86-2.46c-.41-.48-1.15-1.76-1.75-1.74"/></g></g></g></svg>